<svg
  xmlns="http://www.w3.org/2000/svg"
  xmlns:xlink="http://www.w3.org/1999/xlink"
  style="margin: auto; display: block; z-index: 1; position: relative;"
  preserveAspectRatio="xMidYMid"
  viewBox="0 0 1024 384"
>
  <g transform="">
    <path d="" fill="#002355" opacity="0.85">
      <animate
        attributeName="d"
        dur="16.666666666666664s"
        repeatCount="indefinite"
        keyTimes="0;0.333;0.667;1"
        calcmod="spline"
        keySplines="0.2 0 0.2 1;0.2 0 0.2 1;0.2 0 0.2 1"
        begin="0s"
        values="M0 0L 0 355.552824596755Q 128 373.54566786718055  256 356.4554768914748T 512 337.06949819583184T 768 342.6858904073217T 1024 342.2468072476556L 1024 0 Z;M0 0L 0 340.9592913409053Q 128 400.50972438223914  256 356.86486118224076T 512 344.84128361063125T 768 355.48001667114295T 1024 356.4675468740711L 1024 0 Z;M0 0L 0 333.0355714899295Q 128 369.8021528500759  256 338.5224893152387T 512 344.92230652547005T 768 356.62510328549695T 1024 337.5655117897197L 1024 0 Z;M0 0L 0 355.552824596755Q 128 373.54566786718055  256 356.4554768914748T 512 337.06949819583184T 768 342.6858904073217T 1024 342.2468072476556L 1024 0 Z"
      ></animate>
    </path>
    <path d="" fill="#002355" opacity="0.85">
      <animate
        attributeName="d"
        dur="16.666666666666664s"
        repeatCount="indefinite"
        keyTimes="0;0.333;0.667;1"
        calcmod="spline"
        keySplines="0.2 0 0.2 1;0.2 0 0.2 1;0.2 0 0.2 1"
        begin="-5.5555555555555545s"
        values="M0 0L 0 347.9325905652831Q 128 391.33147171057976  256 355.4302877540926T 512 356.4076847886069T 768 336.9558789423565T 1024 335.71005928579297L 1024 0 Z;M0 0L 0 338.4528180800351Q 128 366.39495221447174  256 339.5986431770826T 512 335.3995188026257T 768 334.3040006792272T 1024 332.2562634704353L 1024 0 Z;M0 0L 0 343.9848538362075Q 128 382.1095911490983  256 350.37420885596623T 512 356.2288734156527T 768 339.59791750851144T 1024 346.93624205007603L 1024 0 Z;M0 0L 0 347.9325905652831Q 128 391.33147171057976  256 355.4302877540926T 512 356.4076847886069T 768 336.9558789423565T 1024 335.71005928579297L 1024 0 Z"
      ></animate>
    </path>
    <path d="" fill="#002355" opacity="0.85">
      <animate
        attributeName="d"
        dur="16.666666666666664s"
        repeatCount="indefinite"
        keyTimes="0;0.333;0.667;1"
        calcmod="spline"
        keySplines="0.2 0 0.2 1;0.2 0 0.2 1;0.2 0 0.2 1"
        begin="-11.111111111111109s"
        values="M0 0L 0 351.54567357377846Q 128 371.6278414215703  256 341.0185713444959T 512 337.3452094844111T 768 339.25988510179246T 1024 341.4883322396163L 1024 0 Z;M0 0L 0 335.1755272262302Q 128 371.2469643596389  256 352.343069512345T 512 342.29692622386796T 768 351.9947964052643T 1024 347.7524272643718L 1024 0 Z;M0 0L 0 334.2954165761619Q 128 364.08405330127334  256 345.2516259454062T 512 337.63515908011215T 768 356.860755841423T 1024 340.85235152504106L 1024 0 Z;M0 0L 0 351.54567357377846Q 128 371.6278414215703  256 341.0185713444959T 512 337.3452094844111T 768 339.25988510179246T 1024 341.4883322396163L 1024 0 Z"
      ></animate>
    </path>
  </g>
  <g aria-label="Stuart Thomson" fill="#fff" stroke-width=".3">
    <path
      d="M167 131.6l-7.5 5.1c5 10.3 15 19.5 27.7 19.5 12.3 0 23.8-8.6 23.8-22.1 0-14.1-11.3-20.2-19.6-23.1-13.6-4.7-18-9.2-18-15.8 0-5 3.7-9.8 12.1-9.8 9.1 0 13.8 6.2 16.8 12l8-4.7a26.8 26.8 0 00-24.2-16.3c-13.2 0-22.5 8.5-22.5 20 0 14.1 12.7 19.1 20.5 22 8.9 3.1 17.2 6.3 17.2 16.8 0 7-5.4 12.2-13.8 12.2-9.3 0-15.3-6.4-20.5-15.8zM216.7 104.1v8.3h8.3v42.7h8.9v-42.7h8.3v-8.3h-8.3V86.4H225V104zM260 135.2v-31h-9v32c0 12.3 7 20 17.6 20 6.8 0 11.8-3 15.2-9v8h8.9v-51h-8.9v31c0 7.5-5.2 12.7-13 12.7-7 0-10.8-4.5-10.8-12.7zM312 115.9c2.3-1.8 7.7-5.1 15.3-5.1 6.3 0 11.6 2 11.6 9v7.4a27 27 0 00-14.6-3.8c-12.5 0-20 6.6-20 16.4 0 10.5 8.3 16.4 17.7 16.4 6.2 0 13.5-2.5 16.9-8v7h8.8v-36.7c0-9.8-8-15.5-20-15.5-9.4 0-16.1 3.6-20 6.3zm1.3 23.5c0-5.6 3.8-9 12.5-9 4.7 0 9 .9 13 2.9v1.9c0 8-6.4 13.4-14.5 13.4-6.5 0-11-3.3-11-9.2zM387 113.9l4.8-7.3c-2.7-2.8-5.9-3.6-9.5-3.6-4 0-7.9 2.7-10.8 7V104h-8.9v51h9v-31c0-7.3 1.8-12.8 8.5-12.8 2.8 0 4.4.8 6.8 2.6zM393 104.1v8.3h8.3v42.7h8.9v-42.7h8.3v-8.3h-8.3V86.4h-8.9V104zM453.6 86.4h20V155h9.3V86.4h20v-8.9h-49.3zM545 124v31.1h9V123c0-13.2-7-20-17.6-20a17 17 0 00-15.2 9.2V68.6h-8.9v86.5h8.9v-31c0-7.3 5.2-12.8 13-12.8 7.2 0 10.8 4.4 10.8 12.8zM566.2 129.6a25.8 25.8 0 0026.3 26.6c15 0 26.4-11.2 26.4-26.6a25.8 25.8 0 00-26.4-26.6c-15 0-26.3 11.2-26.3 26.6zm9 0c0-10.6 7.4-18.3 17.3-18.3 10 0 17.5 7.7 17.5 18.3 0 10.7-7.5 18.3-17.5 18.3s-17.4-7.6-17.4-18.3zM701.1 123c0-12.7-6-20-16.4-20-6.9 0-12.2 3.2-15.8 9.5-2.3-6-7.6-9.5-14.7-9.5a15 15 0 00-14 8.5v-7.4h-9v51h9v-31c0-8 4.5-12.8 11.8-12.8 6.6 0 9.7 4 9.7 12.8v31h9v-31c0-8 4.5-12.8 11.8-12.8 6.6 0 9.7 4 9.7 12.8v31h9zM719.8 139.5l-7 4.3a22.5 22.5 0 0020.4 12.4c10.4 0 17.5-6.6 17.5-15.5 0-9-7.2-12.5-16-16.2-5.5-2.2-10.7-4.5-10.7-8.6 0-3.5 3-5 6.7-5 5.4 0 9.7 2.9 12.5 6.6l7-4.5a21.2 21.2 0 00-18.3-10c-8.4 0-16.6 4.3-16.6 13.4 0 9 8 12.8 14.7 15.3 5.9 2.2 11.7 4.7 11.7 10 0 4-3 6.4-8 6.4-6.4 0-10.8-3.8-14-8.6zM757.8 129.6a25.8 25.8 0 0026.4 26.6c15 0 26.4-11.2 26.4-26.6a25.8 25.8 0 00-26.4-26.6c-15 0-26.4 11.2-26.4 26.6zm9 0c0-10.6 7.5-18.3 17.4-18.3 10 0 17.5 7.7 17.5 18.3 0 10.7-7.5 18.3-17.5 18.3s-17.4-7.6-17.4-18.3zM855.7 124v31.1h8.8V123c0-12.3-6.7-20-17.5-20-6.7 0-11.8 2.9-15.2 9.1v-8H823v51h9v-31c0-7.6 5.1-12.8 12.9-12.8 7 0 10.9 4.4 10.9 12.8z"
    />
  </g>
</svg>
