<svg
  xmlns="http://www.w3.org/2000/svg"
  style="min-width: 1024px"
  preserveAspectRatio="xMidYMid"
  viewBox="0 0 1024 250"
>
  <style>
    .full-motion {
      display: unset;
    }

    .reduced-motion {
      display: none;
    }

    @media (prefers-reduced-motion) {
      .full-motion {
        display: none;
      }

      .reduced-motion {
        display: unset;
      }
    }
  </style>
  <path class="full-motion" d="" fill="#002355" opacity="0.4">
    <animate
      attributeName="d"
      values="M0 0 L0 141.34023629735975 Q128 150.80990727308225 256 192.5196344119343 T512 209.06612259468028 T768 205.5622474898414 T1024 146.30761900215717 L1024 0 Z;M0 0 L0 136.7047157897781 Q128 138.18225767985416 256 151.74168243557625 T512 204.5557057658389 T768 214.94540456973795 T1024 157.69976505773914 L1024 0 Z;M0 0 L0 148.18598461064903 Q128 133.50348957826878 256 170.94508096625037 T512 157.67106244760214 T768 117.26078611788385 T1024 125.85031215217543 L1024 0 Z;M0 0 L0 154.0217365211863 Q128 123.85673213741363 256 146.24982944317057 T512 193.68783907574758 T768 187.19917041590273 T1024 133.93841837228035 L1024 0 Z;M0 0 L0 141.34023629735975 Q128 150.80990727308225 256 192.5196344119343 T512 209.06612259468028 T768 205.5622474898414 T1024 146.30761900215717 L1024 0 Z"
      dur="60s"
      begin="0s"
      repeatCount="indefinite"
      calcMode="spline"
      keySplines="0.5 0 0.5 1;0.5 0 0.5 1;0.5 0 0.5 1;0.5 0 0.5 1"
      keyTimes="0;0.25;0.5;0.75;1"
    ></animate>
  </path>
  <path
    class="reduced-motion"
    d="M0 0 L0 141.34023629735975 Q128 150.80990727308225 256 192.5196344119343 T512 209.06612259468028 T768 205.5622474898414 T1024 146.30761900215717 L1024 0 Z"
    fill="#002355"
    opacity="0.4"
  ></path>
  <path class="full-motion" d="" fill="#002355" opacity="0.4">
    <animate
      attributeName="d"
      values="M0 0 L0 153.00750467862758 Q128 120.87270863695409 256 166.20003517283183 T512 195.41647996870833 T768 200.31860525724358 T1024 145.94529149847227 L1024 0 Z;M0 0 L0 145.92083859922525 Q128 177.4319646897773 256 136.8248128300872 T512 171.37559408838314 T768 115.63042449280366 T1024 135.71900349659745 L1024 0 Z;M0 0 L0 156.43932238654673 Q128 145.59715184125105 256 109.47923916696938 T512 134.57986881610475 T768 97.52153632747414 T1024 133.6960661920881 L1024 0 Z;M0 0 L0 126.85168184006722 Q128 108.21263045692208 256 107.66414994395737 T512 66.74931589838621 T768 132.21568930641988 T1024 154.23493385290683 L1024 0 Z;M0 0 L0 153.00750467862758 Q128 120.87270863695409 256 166.20003517283183 T512 195.41647996870833 T768 200.31860525724358 T1024 145.94529149847227 L1024 0 Z"
      dur="60s"
      begin="-8.571428571428571s"
      repeatCount="indefinite"
      calcMode="spline"
      keySplines="0.5 0 0.5 1;0.5 0 0.5 1;0.5 0 0.5 1;0.5 0 0.5 1"
      keyTimes="0;0.25;0.5;0.75;1"
    ></animate>
  </path>
  <path
    class="reduced-motion"
    d="M0 0 L0 153.00750467862758 Q128 120.87270863695409 256 166.20003517283183 T512 195.41647996870833 T768 200.31860525724358 T1024 145.94529149847227 L1024 0 Z"
    fill="#002355"
    opacity="0.4"
  ></path>
  <path class="full-motion" d="" fill="#002355" opacity="0.4">
    <animate
      attributeName="d"
      values="M0 0 L0 155.43909547458307 Q128 173.87326580448203 256 155.64667891456986 T512 111.10650052964499 T768 147.34123429280217 T1024 136.11216239035076 L1024 0 Z;M0 0 L0 130.3885177178588 Q128 73.3834646290259 256 86.4454668554909 T512 96.09134116589001 T768 79.67202351710611 T1024 133.072104690415 L1024 0 Z;M0 0 L0 143.82752722384714 Q128 155.1170408451094 256 173.57065076546036 T512 142.70067279472403 T768 123.92777238212453 T1024 127.07353616250728 L1024 0 Z;M0 0 L0 156.8549854517324 Q128 108.0690085656903 256 112.67008129114996 T512 74.09497340426724 T768 101.63805273034339 T1024 135.83542859246813 L1024 0 Z;M0 0 L0 155.43909547458307 Q128 173.87326580448203 256 155.64667891456986 T512 111.10650052964499 T768 147.34123429280217 T1024 136.11216239035076 L1024 0 Z"
      dur="60s"
      begin="-17.142857142857142s"
      repeatCount="indefinite"
      calcMode="spline"
      keySplines="0.5 0 0.5 1;0.5 0 0.5 1;0.5 0 0.5 1;0.5 0 0.5 1"
      keyTimes="0;0.25;0.5;0.75;1"
    ></animate>
  </path>
  <path
    class="reduced-motion"
    d="M0 0 L0 155.43909547458307 Q128 173.87326580448203 256 155.64667891456986 T512 111.10650052964499 T768 147.34123429280217 T1024 136.11216239035076 L1024 0 Z"
    fill="#002355"
    opacity="0.4"
  ></path>
  <path class="full-motion" d="" fill="#002355" opacity="0.4">
    <animate
      attributeName="d"
      values="M0 0 L0 132.54623756271832 Q128 187.57227775229015 256 173.28261984144 T512 191.7661877221789 T768 130.38676713735003 T1024 143.66600371994414 L1024 0 Z;M0 0 L0 128.86305360764328 Q128 150.16888061483047 256 107.25960209066918 T512 144.00285382978305 T768 162.33510543360865 T1024 143.80327703897865 L1024 0 Z;M0 0 L0 136.04617341714425 Q128 137.8270040126604 256 117.23290820900202 T512 126.58418754743337 T768 107.69908407940713 T1024 143.1359822236444 L1024 0 Z;M0 0 L0 159.93489997732564 Q128 165.87970804575087 256 117.77000254821648 T512 109.85298507394916 T768 97.09017722331973 T1024 133.29976292854568 L1024 0 Z;M0 0 L0 132.54623756271832 Q128 187.57227775229015 256 173.28261984144 T512 191.7661877221789 T768 130.38676713735003 T1024 143.66600371994414 L1024 0 Z"
      dur="60s"
      begin="-25.714285714285715s"
      repeatCount="indefinite"
      calcMode="spline"
      keySplines="0.5 0 0.5 1;0.5 0 0.5 1;0.5 0 0.5 1;0.5 0 0.5 1"
      keyTimes="0;0.25;0.5;0.75;1"
    ></animate>
  </path>
  <path
    class="reduced-motion"
    d="M0 0 L0 132.54623756271832 Q128 187.57227775229015 256 173.28261984144 T512 191.7661877221789 T768 130.38676713735003 T1024 143.66600371994414 L1024 0 Z"
    fill="#002355"
    opacity="0.4"
  ></path>
  <path class="full-motion" d="" fill="#002355" opacity="0.4">
    <animate
      attributeName="d"
      values="M0 0 L0 149.5845962884137 Q128 146.09609211098498 256 143.93876902863897 T512 191.211820651278 T768 178.23721566766162 T1024 128.66799791474114 L1024 0 Z;M0 0 L0 159.0078111030524 Q128 141.97120264768174 256 146.4280301210563 T512 160.114990993677 T768 139.52664913299168 T1024 128.03748094757472 L1024 0 Z;M0 0 L0 140.40407665064808 Q128 133.71429617272835 256 169.34216134375816 T512 131.21896073968566 T768 112.51118046034283 T1024 151.9347079684908 L1024 0 Z;M0 0 L0 145.45083312262773 Q128 152.66832217883788 256 94.76812811136128 T512 110.15136388357774 T768 104.53685005122719 T1024 154.9110541984963 L1024 0 Z;M0 0 L0 149.5845962884137 Q128 146.09609211098498 256 143.93876902863897 T512 191.211820651278 T768 178.23721566766162 T1024 128.66799791474114 L1024 0 Z"
      dur="60s"
      begin="-34.285714285714285s"
      repeatCount="indefinite"
      calcMode="spline"
      keySplines="0.5 0 0.5 1;0.5 0 0.5 1;0.5 0 0.5 1;0.5 0 0.5 1"
      keyTimes="0;0.25;0.5;0.75;1"
    ></animate>
  </path>
  <path
    class="reduced-motion"
    d="M0 0 L0 149.5845962884137 Q128 146.09609211098498 256 143.93876902863897 T512 191.211820651278 T768 178.23721566766162 T1024 128.66799791474114 L1024 0 Z"
    fill="#002355"
    opacity="0.4"
  ></path>
  <path class="full-motion" d="" fill="#002355" opacity="0.4">
    <animate
      attributeName="d"
      values="M0 0 L0 157.7933650407653 Q128 170.34040606485848 256 143.37274399252425 T512 190.94386714338134 T768 140.16742184450052 T1024 138.1811951879676 L1024 0 Z;M0 0 L0 133.39664611191392 Q128 82.16747288054893 256 102.23363486367174 T512 88.98982179185019 T768 132.98015593209894 T1024 149.37318374849156 L1024 0 Z;M0 0 L0 136.27438856174365 Q128 173.53663787524025 256 168.84410566418072 T512 138.554101090475 T768 121.49615465545943 T1024 127.79017656941306 L1024 0 Z;M0 0 L0 145.30178220633871 Q128 118.00127679147019 256 145.18947293478595 T512 165.42054596851963 T768 130.0120858564605 T1024 151.5651548940465 L1024 0 Z;M0 0 L0 157.7933650407653 Q128 170.34040606485848 256 143.37274399252425 T512 190.94386714338134 T768 140.16742184450052 T1024 138.1811951879676 L1024 0 Z"
      dur="60s"
      begin="-42.857142857142854s"
      repeatCount="indefinite"
      calcMode="spline"
      keySplines="0.5 0 0.5 1;0.5 0 0.5 1;0.5 0 0.5 1;0.5 0 0.5 1"
      keyTimes="0;0.25;0.5;0.75;1"
    ></animate>
  </path>
  <path
    class="reduced-motion"
    d="M0 0 L0 157.7933650407653 Q128 170.34040606485848 256 143.37274399252425 T512 190.94386714338134 T768 140.16742184450052 T1024 138.1811951879676 L1024 0 Z"
    fill="#002355"
    opacity="0.4"
  ></path>
  <path class="full-motion" d="" fill="#002355" opacity="0.4">
    <animate
      attributeName="d"
      values="M0 0 L0 138.37813660815146 Q128 100.81053935771986 256 74.28579597201303 T512 68.29196389481726 T768 110.11937141208239 T1024 128.14248260859068 L1024 0 Z;M0 0 L0 143.91984171352428 Q128 142.57524415868497 256 143.4954363454967 T512 212.9606377517128 T768 167.61773038868523 T1024 140.2359607081167 L1024 0 Z;M0 0 L0 152.98804711664712 Q128 121.34605535791493 256 150.5512994593996 T512 156.13541265736603 T768 166.01268847431282 T1024 121.45436963500501 L1024 0 Z;M0 0 L0 130.90771998161094 Q128 84.37834102421434 256 105.80371346049367 T512 74.6204601039725 T768 124.99829573997694 T1024 122.79586407412974 L1024 0 Z;M0 0 L0 138.37813660815146 Q128 100.81053935771986 256 74.28579597201303 T512 68.29196389481726 T768 110.11937141208239 T1024 128.14248260859068 L1024 0 Z"
      dur="60s"
      begin="-51.42857142857143s"
      repeatCount="indefinite"
      calcMode="spline"
      keySplines="0.5 0 0.5 1;0.5 0 0.5 1;0.5 0 0.5 1;0.5 0 0.5 1"
      keyTimes="0;0.25;0.5;0.75;1"
    ></animate>
  </path>
  <path
    class="reduced-motion"
    d="M0 0 L0 138.37813660815146 Q128 100.81053935771986 256 74.28579597201303 T512 68.29196389481726 T768 110.11937141208239 T1024 128.14248260859068 L1024 0 Z"
    fill="#002355"
    opacity="0.4"
  ></path>
  <path
    aria-label="Stuart Thomson"
    fill="#fff"
    d="M167 131.6l-7.5 5.1c5 10.3 15 19.5 27.7 19.5 12.3 0 23.8-8.6 23.8-22.1 0-14.1-11.3-20.2-19.6-23.1-13.6-4.7-18-9.2-18-15.8 0-5 3.7-9.8 12.1-9.8 9.1 0 13.8 6.2 16.8 12l8-4.7a26.8 26.8 0 00-24.2-16.3c-13.2 0-22.5 8.5-22.5 20 0 14.1 12.7 19.1 20.5 22 8.9 3.1 17.2 6.3 17.2 16.8 0 7-5.4 12.2-13.8 12.2-9.3 0-15.3-6.4-20.5-15.8zM216.7 104.1v8.3h8.3v42.7h8.9v-42.7h8.3v-8.3h-8.3V86.4H225V104zM260 135.2v-31h-9v32c0 12.3 7 20 17.6 20 6.8 0 11.8-3 15.2-9v8h8.9v-51h-8.9v31c0 7.5-5.2 12.7-13 12.7-7 0-10.8-4.5-10.8-12.7zM312 115.9c2.3-1.8 7.7-5.1 15.3-5.1 6.3 0 11.6 2 11.6 9v7.4a27 27 0 00-14.6-3.8c-12.5 0-20 6.6-20 16.4 0 10.5 8.3 16.4 17.7 16.4 6.2 0 13.5-2.5 16.9-8v7h8.8v-36.7c0-9.8-8-15.5-20-15.5-9.4 0-16.1 3.6-20 6.3zm1.3 23.5c0-5.6 3.8-9 12.5-9 4.7 0 9 .9 13 2.9v1.9c0 8-6.4 13.4-14.5 13.4-6.5 0-11-3.3-11-9.2zM387 113.9l4.8-7.3c-2.7-2.8-5.9-3.6-9.5-3.6-4 0-7.9 2.7-10.8 7V104h-8.9v51h9v-31c0-7.3 1.8-12.8 8.5-12.8 2.8 0 4.4.8 6.8 2.6zM393 104.1v8.3h8.3v42.7h8.9v-42.7h8.3v-8.3h-8.3V86.4h-8.9V104zM453.6 86.4h20V155h9.3V86.4h20v-8.9h-49.3zM545 124v31.1h9V123c0-13.2-7-20-17.6-20a17 17 0 00-15.2 9.2V68.6h-8.9v86.5h8.9v-31c0-7.3 5.2-12.8 13-12.8 7.2 0 10.8 4.4 10.8 12.8zM566.2 129.6a25.8 25.8 0 0026.3 26.6c15 0 26.4-11.2 26.4-26.6a25.8 25.8 0 00-26.4-26.6c-15 0-26.3 11.2-26.3 26.6zm9 0c0-10.6 7.4-18.3 17.3-18.3 10 0 17.5 7.7 17.5 18.3 0 10.7-7.5 18.3-17.5 18.3s-17.4-7.6-17.4-18.3zM701.1 123c0-12.7-6-20-16.4-20-6.9 0-12.2 3.2-15.8 9.5-2.3-6-7.6-9.5-14.7-9.5a15 15 0 00-14 8.5v-7.4h-9v51h9v-31c0-8 4.5-12.8 11.8-12.8 6.6 0 9.7 4 9.7 12.8v31h9v-31c0-8 4.5-12.8 11.8-12.8 6.6 0 9.7 4 9.7 12.8v31h9zM719.8 139.5l-7 4.3a22.5 22.5 0 0020.4 12.4c10.4 0 17.5-6.6 17.5-15.5 0-9-7.2-12.5-16-16.2-5.5-2.2-10.7-4.5-10.7-8.6 0-3.5 3-5 6.7-5 5.4 0 9.7 2.9 12.5 6.6l7-4.5a21.2 21.2 0 00-18.3-10c-8.4 0-16.6 4.3-16.6 13.4 0 9 8 12.8 14.7 15.3 5.9 2.2 11.7 4.7 11.7 10 0 4-3 6.4-8 6.4-6.4 0-10.8-3.8-14-8.6zM757.8 129.6a25.8 25.8 0 0026.4 26.6c15 0 26.4-11.2 26.4-26.6a25.8 25.8 0 00-26.4-26.6c-15 0-26.4 11.2-26.4 26.6zm9 0c0-10.6 7.5-18.3 17.4-18.3 10 0 17.5 7.7 17.5 18.3 0 10.7-7.5 18.3-17.5 18.3s-17.4-7.6-17.4-18.3zM855.7 124v31.1h8.8V123c0-12.3-6.7-20-17.5-20-6.7 0-11.8 2.9-15.2 9.1v-8H823v51h9v-31c0-7.6 5.1-12.8 12.9-12.8 7 0 10.9 4.4 10.9 12.8z"
  ></path>
</svg>
